<?xml version="1.0" encoding="UTF-8"?>
<svg xmlns="http://www.w3.org/2000/svg" xmlns:xlink="http://www.w3.org/1999/xlink" width="1920" height="1080" viewBox="0 0 1920 1080">
<defs>
<g>
<g id="glyph-0-0">
<path d="M 0.179688 -0.179688 C 0.585938 -0.210938 0.839844 -0.285156 0.9375 -0.398438 C 1.035156 -0.511719 1.085938 -0.777344 1.085938 -1.203125 L 1.085938 -5.53125 C 1.085938 -5.894531 1.03125 -6.128906 0.921875 -6.234375 C 0.8125 -6.339844 0.566406 -6.40625 0.179688 -6.429688 L 0.179688 -6.617188 L 3.03125 -6.617188 L 3.03125 -6.429688 C 2.640625 -6.410156 2.390625 -6.347656 2.273438 -6.234375 C 2.160156 -6.125 2.105469 -5.890625 2.105469 -5.53125 L 2.105469 -3.480469 C 2.71875 -4.003906 3.222656 -4.453125 3.613281 -4.820312 C 4.3125 -5.488281 4.664062 -5.914062 4.664062 -6.101562 C 4.664062 -6.234375 4.605469 -6.324219 4.484375 -6.367188 C 4.367188 -6.410156 4.199219 -6.429688 3.980469 -6.429688 L 3.980469 -6.617188 L 6.597656 -6.617188 L 6.597656 -6.453125 C 6.277344 -6.421875 6.027344 -6.359375 5.84375 -6.265625 C 5.660156 -6.171875 5.402344 -5.964844 5.078125 -5.644531 L 3.179688 -3.785156 L 5.507812 -1.269531 C 5.941406 -0.804688 6.234375 -0.511719 6.390625 -0.398438 C 6.546875 -0.28125 6.777344 -0.207031 7.078125 -0.171875 L 7.078125 0 L 4.023438 0 L 4.023438 -0.179688 C 4.300781 -0.191406 4.488281 -0.210938 4.585938 -0.246094 C 4.683594 -0.28125 4.730469 -0.347656 4.730469 -0.449219 C 4.730469 -0.503906 4.699219 -0.589844 4.636719 -0.703125 C 4.574219 -0.816406 4.472656 -0.949219 4.335938 -1.097656 L 2.441406 -3.179688 L 2.105469 -2.890625 L 2.105469 -1.085938 C 2.105469 -0.714844 2.160156 -0.476562 2.273438 -0.378906 C 2.386719 -0.28125 2.628906 -0.214844 3.007812 -0.179688 L 3.007812 0 L 0.179688 0 Z "/>
</g>
<g id="glyph-0-1">
<path d="M 2.289062 -4.578125 C 2.75 -4.578125 3.152344 -4.421875 3.496094 -4.105469 C 3.839844 -3.789062 4.015625 -3.335938 4.015625 -2.753906 L 0.914062 -2.753906 C 0.945312 -2 1.117188 -1.449219 1.425781 -1.101562 C 1.734375 -0.757812 2.101562 -0.585938 2.523438 -0.585938 C 2.867188 -0.585938 3.15625 -0.675781 3.390625 -0.855469 C 3.625 -1.035156 3.839844 -1.289062 4.039062 -1.617188 L 4.210938 -1.558594 C 4.078125 -1.144531 3.824219 -0.761719 3.460938 -0.410156 C 3.09375 -0.0585938 2.644531 0.117188 2.113281 0.117188 C 1.5 0.117188 1.03125 -0.113281 0.695312 -0.578125 C 0.363281 -1.039062 0.195312 -1.570312 0.195312 -2.171875 C 0.195312 -2.828125 0.390625 -3.390625 0.777344 -3.867188 C 1.164062 -4.34375 1.667969 -4.578125 2.289062 -4.578125 Z M 2.007812 -4.222656 C 1.636719 -4.222656 1.351562 -4.058594 1.15625 -3.730469 C 1.054688 -3.554688 0.976562 -3.332031 0.933594 -3.066406 L 2.992188 -3.066406 C 2.957031 -3.390625 2.894531 -3.632812 2.808594 -3.792969 C 2.648438 -4.078125 2.382812 -4.222656 2.007812 -4.222656 Z "/>
</g>
<g id="glyph-0-2">
<path d="M 0.136719 -4.488281 L 2.195312 -4.488281 L 2.195312 -4.335938 C 2.035156 -4.332031 1.914062 -4.316406 1.835938 -4.292969 C 1.6875 -4.25 1.609375 -4.167969 1.609375 -4.042969 C 1.609375 -3.996094 1.621094 -3.949219 1.636719 -3.902344 C 1.652344 -3.855469 1.679688 -3.785156 1.722656 -3.691406 L 2.867188 -1.15625 L 3.785156 -3.710938 C 3.792969 -3.738281 3.808594 -3.796875 3.832031 -3.886719 C 3.851562 -3.976562 3.863281 -4.039062 3.863281 -4.070312 C 3.863281 -4.15625 3.832031 -4.21875 3.773438 -4.257812 C 3.714844 -4.296875 3.640625 -4.320312 3.550781 -4.328125 L 3.398438 -4.335938 L 3.398438 -4.488281 L 4.742188 -4.488281 L 4.742188 -4.335938 C 4.609375 -4.320312 4.507812 -4.273438 4.441406 -4.199219 C 4.375 -4.125 4.316406 -4.019531 4.265625 -3.886719 L 2.730469 0.1875 C 2.460938 0.890625 2.207031 1.398438 1.960938 1.714844 C 1.71875 2.03125 1.410156 2.1875 1.035156 2.1875 C 0.851562 2.1875 0.683594 2.140625 0.523438 2.050781 C 0.363281 1.960938 0.28125 1.816406 0.28125 1.617188 C 0.28125 1.484375 0.332031 1.378906 0.425781 1.296875 C 0.523438 1.214844 0.644531 1.171875 0.789062 1.171875 C 0.875 1.171875 1 1.203125 1.167969 1.265625 C 1.335938 1.328125 1.457031 1.359375 1.527344 1.359375 C 1.710938 1.359375 1.902344 1.144531 2.105469 0.722656 C 2.304688 0.300781 2.40625 0.015625 2.40625 -0.125 C 2.40625 -0.15625 2.402344 -0.191406 2.390625 -0.234375 C 2.382812 -0.277344 2.371094 -0.3125 2.359375 -0.347656 L 0.796875 -3.726562 C 0.6875 -3.96875 0.589844 -4.125 0.503906 -4.203125 C 0.421875 -4.277344 0.300781 -4.328125 0.136719 -4.351562 Z "/>
</g>
<g id="glyph-0-3">
<rect x="0" y="0" width="0" height="0" mask="url(#mask-0)"/>
</g>
<g id="glyph-0-4">
<path d="M 2.054688 -0.773438 C 2.054688 -0.609375 2.09375 -0.5 2.175781 -0.449219 C 2.253906 -0.398438 2.421875 -0.371094 2.671875 -0.371094 C 3.453125 -0.371094 4.09375 -0.527344 4.601562 -0.835938 C 5.375 -1.3125 5.761719 -2.121094 5.761719 -3.273438 C 5.761719 -4.296875 5.441406 -5.070312 4.804688 -5.585938 C 4.257812 -6.027344 3.535156 -6.25 2.632812 -6.25 C 2.40625 -6.25 2.253906 -6.226562 2.175781 -6.175781 C 2.09375 -6.128906 2.054688 -6.019531 2.054688 -5.855469 Z M 0.160156 -0.179688 C 0.523438 -0.21875 0.761719 -0.285156 0.875 -0.378906 C 0.984375 -0.472656 1.039062 -0.707031 1.039062 -1.085938 L 1.039062 -5.53125 C 1.039062 -5.898438 0.984375 -6.132812 0.878906 -6.234375 C 0.773438 -6.339844 0.53125 -6.40625 0.160156 -6.429688 L 0.160156 -6.617188 L 2.855469 -6.617188 C 3.765625 -6.617188 4.53125 -6.464844 5.160156 -6.167969 C 6.292969 -5.628906 6.859375 -4.667969 6.859375 -3.285156 C 6.859375 -2.789062 6.757812 -2.3125 6.554688 -1.867188 C 6.351562 -1.417969 6.046875 -1.035156 5.632812 -0.726562 C 5.375 -0.53125 5.105469 -0.382812 4.824219 -0.28125 C 4.3125 -0.09375 3.683594 0 2.9375 0 L 0.160156 0 Z "/>
</g>
<g id="glyph-0-5">
<path d="M 0.820312 -6.304688 C 0.820312 -6.445312 0.867188 -6.5625 0.96875 -6.664062 C 1.066406 -6.765625 1.183594 -6.816406 1.328125 -6.816406 C 1.46875 -6.816406 1.585938 -6.765625 1.6875 -6.667969 C 1.785156 -6.570312 1.835938 -6.445312 1.835938 -6.304688 C 1.835938 -6.164062 1.785156 -6.042969 1.6875 -5.945312 C 1.585938 -5.84375 1.46875 -5.796875 1.328125 -5.796875 C 1.183594 -5.796875 1.0625 -5.84375 0.96875 -5.945312 C 0.871094 -6.042969 0.820312 -6.164062 0.820312 -6.304688 Z M 0.195312 -0.136719 C 0.542969 -0.167969 0.761719 -0.230469 0.855469 -0.316406 C 0.945312 -0.402344 0.992188 -0.632812 0.992188 -1.015625 L 0.992188 -3.34375 C 0.992188 -3.554688 0.976562 -3.703125 0.945312 -3.785156 C 0.898438 -3.917969 0.796875 -3.984375 0.640625 -3.984375 C 0.605469 -3.984375 0.570312 -3.980469 0.535156 -3.976562 C 0.5 -3.96875 0.402344 -3.941406 0.238281 -3.898438 L 0.238281 -4.046875 L 0.449219 -4.117188 C 1.019531 -4.300781 1.414062 -4.441406 1.640625 -4.535156 C 1.730469 -4.574219 1.789062 -4.59375 1.816406 -4.59375 C 1.824219 -4.570312 1.828125 -4.546875 1.828125 -4.523438 L 1.828125 -1.015625 C 1.828125 -0.644531 1.871094 -0.410156 1.960938 -0.316406 C 2.050781 -0.222656 2.253906 -0.164062 2.570312 -0.136719 L 2.570312 0 L 0.195312 0 Z "/>
</g>
<g id="glyph-0-6">
<path d="M 0.195312 -0.136719 C 0.539062 -0.152344 0.765625 -0.21875 0.875 -0.328125 C 0.984375 -0.441406 1.039062 -0.679688 1.039062 -1.039062 L 1.039062 -4.175781 L 0.203125 -4.175781 L 0.203125 -4.5 L 1.039062 -4.5 C 1.039062 -5.015625 1.109375 -5.449219 1.25 -5.804688 C 1.515625 -6.484375 2.007812 -6.828125 2.71875 -6.828125 C 3.007812 -6.828125 3.261719 -6.769531 3.488281 -6.65625 C 3.714844 -6.542969 3.828125 -6.386719 3.828125 -6.195312 C 3.828125 -6.089844 3.789062 -5.992188 3.710938 -5.90625 C 3.632812 -5.824219 3.539062 -5.78125 3.429688 -5.78125 C 3.335938 -5.78125 3.25 -5.808594 3.183594 -5.867188 C 3.117188 -5.921875 3.035156 -6.023438 2.9375 -6.167969 L 2.855469 -6.292969 C 2.8125 -6.363281 2.757812 -6.421875 2.695312 -6.46875 C 2.632812 -6.515625 2.546875 -6.539062 2.4375 -6.539062 C 2.1875 -6.539062 2.023438 -6.414062 1.933594 -6.171875 C 1.882812 -6.042969 1.859375 -5.871094 1.859375 -5.660156 L 1.859375 -4.5 L 3.085938 -4.5 L 3.085938 -4.175781 L 1.871094 -4.175781 L 1.871094 -1.039062 C 1.871094 -0.671875 1.917969 -0.4375 2.019531 -0.335938 C 2.117188 -0.234375 2.378906 -0.164062 2.796875 -0.136719 L 2.796875 0 L 0.195312 0 Z "/>
</g>
<g id="glyph-0-7">
<path d="M 0.0429688 -0.160156 C 0.34375 -0.1875 0.542969 -0.238281 0.640625 -0.320312 C 0.738281 -0.398438 0.785156 -0.570312 0.785156 -0.828125 L 0.785156 -3.03125 C 0.785156 -3.355469 0.757812 -3.585938 0.695312 -3.722656 C 0.636719 -3.859375 0.527344 -3.929688 0.367188 -3.929688 C 0.335938 -3.929688 0.289062 -3.925781 0.238281 -3.917969 C 0.183594 -3.910156 0.125 -3.898438 0.0703125 -3.886719 L 0.0703125 -4.046875 C 0.253906 -4.113281 0.445312 -4.179688 0.640625 -4.25 C 0.835938 -4.316406 0.96875 -4.367188 1.046875 -4.394531 C 1.207031 -4.457031 1.375 -4.527344 1.546875 -4.605469 C 1.570312 -4.605469 1.585938 -4.597656 1.589844 -4.578125 C 1.59375 -4.5625 1.597656 -4.53125 1.597656 -4.476562 L 1.597656 -3.675781 C 1.804688 -3.964844 2.007812 -4.191406 2.199219 -4.355469 C 2.394531 -4.519531 2.59375 -4.601562 2.804688 -4.601562 C 2.96875 -4.601562 3.105469 -4.550781 3.207031 -4.449219 C 3.3125 -4.351562 3.363281 -4.226562 3.363281 -4.078125 C 3.363281 -3.945312 3.324219 -3.832031 3.246094 -3.742188 C 3.164062 -3.648438 3.066406 -3.601562 2.945312 -3.601562 C 2.820312 -3.601562 2.695312 -3.660156 2.570312 -3.773438 C 2.445312 -3.886719 2.347656 -3.945312 2.273438 -3.945312 C 2.160156 -3.945312 2.023438 -3.851562 1.855469 -3.667969 C 1.6875 -3.484375 1.605469 -3.296875 1.605469 -3.101562 L 1.605469 -0.898438 C 1.605469 -0.617188 1.671875 -0.425781 1.800781 -0.316406 C 1.929688 -0.207031 2.148438 -0.15625 2.453125 -0.160156 L 2.453125 0 L 0.0429688 0 Z "/>
</g>
<g id="glyph-0-8">
<path d="M 0.179688 -0.136719 C 0.410156 -0.164062 0.574219 -0.222656 0.667969 -0.308594 C 0.757812 -0.394531 0.804688 -0.589844 0.804688 -0.890625 L 0.804688 -3.363281 C 0.804688 -3.570312 0.785156 -3.71875 0.746094 -3.804688 C 0.683594 -3.929688 0.558594 -3.988281 0.367188 -3.988281 C 0.335938 -3.988281 0.308594 -3.988281 0.277344 -3.984375 C 0.246094 -3.980469 0.207031 -3.976562 0.160156 -3.96875 L 0.160156 -4.140625 C 0.292969 -4.179688 0.609375 -4.28125 1.109375 -4.445312 L 1.566406 -4.59375 C 1.589844 -4.59375 1.605469 -4.585938 1.609375 -4.570312 C 1.613281 -4.554688 1.617188 -4.53125 1.617188 -4.5 L 1.617188 -3.785156 C 1.914062 -4.0625 2.148438 -4.257812 2.320312 -4.359375 C 2.574219 -4.519531 2.835938 -4.601562 3.109375 -4.601562 C 3.332031 -4.601562 3.535156 -4.535156 3.714844 -4.410156 C 4.066406 -4.164062 4.242188 -3.71875 4.242188 -3.085938 L 4.242188 -0.804688 C 4.242188 -0.570312 4.289062 -0.402344 4.382812 -0.296875 C 4.476562 -0.195312 4.636719 -0.140625 4.859375 -0.136719 L 4.859375 0 L 2.773438 0 L 2.773438 -0.136719 C 3.011719 -0.167969 3.175781 -0.234375 3.273438 -0.335938 C 3.367188 -0.433594 3.414062 -0.648438 3.414062 -0.980469 L 3.414062 -3.066406 C 3.414062 -3.347656 3.359375 -3.578125 3.257812 -3.761719 C 3.152344 -3.945312 2.960938 -4.039062 2.679688 -4.039062 C 2.488281 -4.039062 2.292969 -3.972656 2.09375 -3.84375 C 1.984375 -3.769531 1.839844 -3.644531 1.664062 -3.472656 L 1.664062 -0.738281 C 1.664062 -0.503906 1.71875 -0.347656 1.820312 -0.265625 C 1.925781 -0.1875 2.089844 -0.144531 2.3125 -0.136719 L 2.3125 0 L 0.179688 0 Z "/>
</g>
<g id="glyph-0-9">
<path d="M 2.484375 -4.605469 C 2.890625 -4.605469 3.242188 -4.5 3.539062 -4.289062 C 3.832031 -4.078125 3.980469 -3.847656 3.980469 -3.597656 C 3.980469 -3.492188 3.941406 -3.390625 3.867188 -3.296875 C 3.792969 -3.203125 3.675781 -3.160156 3.519531 -3.160156 C 3.40625 -3.160156 3.304688 -3.199219 3.21875 -3.277344 C 3.132812 -3.355469 3.070312 -3.46875 3.03125 -3.617188 L 2.972656 -3.851562 C 2.929688 -4.023438 2.859375 -4.148438 2.753906 -4.21875 C 2.648438 -4.289062 2.503906 -4.320312 2.328125 -4.320312 C 1.957031 -4.320312 1.644531 -4.160156 1.390625 -3.835938 C 1.132812 -3.511719 1.007812 -3.082031 1.007812 -2.542969 C 1.007812 -2.050781 1.148438 -1.609375 1.429688 -1.21875 C 1.710938 -0.828125 2.089844 -0.632812 2.570312 -0.632812 C 2.90625 -0.632812 3.207031 -0.746094 3.472656 -0.96875 C 3.621094 -1.09375 3.789062 -1.296875 3.980469 -1.570312 L 4.117188 -1.488281 C 3.929688 -1.097656 3.734375 -0.789062 3.53125 -0.5625 C 3.136719 -0.125 2.679688 0.09375 2.164062 0.09375 C 1.65625 0.09375 1.207031 -0.109375 0.816406 -0.507812 C 0.425781 -0.90625 0.230469 -1.453125 0.230469 -2.140625 C 0.230469 -2.8125 0.441406 -3.390625 0.867188 -3.875 C 1.296875 -4.359375 1.835938 -4.605469 2.484375 -4.605469 Z "/>
</g>
<g id="glyph-0-10">
<path d="M 1.894531 -4.058594 C 1.894531 -3.894531 1.839844 -3.761719 1.726562 -3.660156 C 1.613281 -3.558594 1.484375 -3.507812 1.34375 -3.507812 C 1.1875 -3.507812 1.058594 -3.5625 0.957031 -3.671875 C 0.855469 -3.78125 0.804688 -3.910156 0.804688 -4.054688 C 0.804688 -4.203125 0.859375 -4.332031 0.960938 -4.4375 C 1.066406 -4.542969 1.191406 -4.59375 1.34375 -4.59375 C 1.484375 -4.59375 1.613281 -4.542969 1.726562 -4.441406 C 1.839844 -4.339844 1.894531 -4.210938 1.894531 -4.058594 Z M 1.328125 0.0820312 C 1.191406 0.0820312 1.070312 0.03125 0.964844 -0.078125 C 0.859375 -0.1875 0.804688 -0.316406 0.804688 -0.46875 C 0.804688 -0.617188 0.859375 -0.742188 0.960938 -0.851562 C 1.066406 -0.960938 1.195312 -1.015625 1.347656 -1.015625 C 1.5 -1.015625 1.632812 -0.960938 1.75 -0.855469 C 1.863281 -0.75 1.917969 -0.625 1.917969 -0.472656 C 1.917969 -0.328125 1.867188 -0.203125 1.757812 -0.0859375 C 1.648438 0.0273438 1.507812 0.0820312 1.328125 0.0820312 Z "/>
</g>
</g>
<image id="source-30" x="0" y="0" width="0" height="0"/>
<mask id="mask-0">
<use xlink:href="#source-30"/>
</mask>
</defs>
<g fill="rgb(100%, 100%, 100%)" fill-opacity="1">
<use xlink:href="#glyph-0-0" x="30" y="27.5"/>
<use xlink:href="#glyph-0-1" x="37" y="27.5"/>
<use xlink:href="#glyph-0-2" x="41" y="27.5"/>
<use xlink:href="#glyph-0-3" x="46" y="27.5"/>
<use xlink:href="#glyph-0-4" x="49" y="27.5"/>
<use xlink:href="#glyph-0-5" x="56" y="27.5"/>
<use xlink:href="#glyph-0-6" x="59" y="27.5"/>
<use xlink:href="#glyph-0-6" x="62" y="27.5"/>
<use xlink:href="#glyph-0-1" x="65" y="27.5"/>
<use xlink:href="#glyph-0-7" x="69" y="27.5"/>
<use xlink:href="#glyph-0-1" x="72" y="27.5"/>
<use xlink:href="#glyph-0-8" x="76" y="27.5"/>
<use xlink:href="#glyph-0-9" x="81" y="27.5"/>
<use xlink:href="#glyph-0-1" x="85" y="27.5"/>
<use xlink:href="#glyph-0-10" x="89" y="27.5"/>
</g>
</svg>
